<svg xmlns="http://www.w3.org/2000/svg" width="7.97" height="13.493" viewBox="0 0 7.97 13.493">
  <g id="down-arrow" transform="translate(7.97) rotate(90)">
    <g id="Group_357" data-name="Group 357" transform="translate(0)">
      <path id="Path_940" data-name="Path 940" d="M13.278,7.3l-.442.445a.74.74,0,0,1-1.044,0L6.75,2.707,1.7,7.755a.74.74,0,0,1-1.044,0L.216,7.312a.739.739,0,0,1,0-1.044L6.226.237A.754.754,0,0,1,6.749,0h0a.754.754,0,0,1,.522.237l6,6.015a.746.746,0,0,1,.216.527A.738.738,0,0,1,13.278,7.3Z" fill="#fff"/>
    </g>
  </g>
</svg>
